<svg width="152" 
height="111" 
viewBox="0 0 152 111" 
fill="none"
 xmlns="http://www.w3.org/2000/svg">
<rect width="111"
 height="111" 
 fill="#1F1E1E"/>
<path d="M30.1772 54.6989H20.1102V37.7793H20.0853V37.7544H16.5469V55.1225H30.1772V54.6989Z" 
fill="white"/>
<path d="M33.1721 55.1225H46.8523V54.6989H36.7105V46.2765H44.6345V45.8279H36.7105V38.178H46.8523V37.7544H33.1721V55.1225Z"
 fill="white"/>
<path d="M53.3844 55.1225V38.178C55.5523 38.178 62.2304 39.0003 62.7288 48.6686V55.1225H66.2672V37.7544H62.7288V45.5538C61.6573 40.919 58.2684 37.7544 53.3844 37.7544H49.846V55.1225H53.3844Z" fill="white"/>
<path d="M73.5381 55.1225V38.178C75.706 38.178 82.3841 39.0003 82.8825 48.6686V55.1225H86.4209V37.7544H82.8825V45.5538C81.811 40.919 78.4221 37.7544 73.5381 37.7544H69.9997V55.1225H73.5381Z" fill="white"/>
<path d="M90.1534 55.1225H93.6918V37.7544H90.1534V55.1225Z" 
fill="white"/>
<rect x="61"
 y="69" 
 width="91" 
 height="32" 
 fill="#BC3324"/>
<path d="M82.248 93.6326H82.6558L84.8758 87.1765H91.3319L93.8464 93.6326H97.2217L91.1054 77.8435H87.6848L82.248 93.6326ZM87.9113 78.3418L91.196 86.7914H85.0117L87.9113 78.3418Z" fill="white"/>
<path d="M100.16 77.8435V93.6326H103.377V88.1733H107.205L110.897 93.61H114.567L110.671 87.8335C112.936 87.2445 114.658 85.84 114.658 82.6912C114.658 78.7496 111.781 77.5037 108.428 77.5037C104.894 77.5037 103.875 80.1541 103.377 83.099V77.8435H100.16ZM104.26 81.1508C104.872 78.9308 106.457 78.0247 107.862 77.9114C111.237 77.5943 111.373 79.7463 111.373 82.6912C111.373 87.471 108.836 87.7882 106.661 87.7882H103.377C103.377 87.7882 103.286 84.662 104.26 81.1508Z" fill="white"/>
<path d="M122.39 78.2286L122.413 93.6326H125.63V78.2286H132.131V77.8435H115.889V78.2286H122.39Z" fill="white"/>
</svg>
